<mxfile host="app.diagrams.net" modified="2023-12-04T07:08:03.689Z" agent="Mozilla/5.0 (Windows NT 10.0; Win64; x64) AppleWebKit/537.36 (KHTML, like Gecko) Chrome/119.0.0.0 Safari/537.36" version="22.1.5" etag="nn-gsKU8rrwftZuNT7aI" type="github">
  <diagram name="Page-1" id="0S8OSJrnO9Cd2NBpTj0E">
    <mxGraphModel>
      <root>
        <mxCell id="0" />
        <mxCell id="1" parent="0" />
      </root>
    </mxGraphModel>
  </diagram>
</mxfile>
